<svg id="Layer_1" xmlns="http://www.w3.org/2000/svg" viewBox="0 0 678.5 292.3"><style>.st0{fill:none}.st1{fill:#fff}.st2{fill:#589bb9}</style><path class="st0" d="M0 0h678.5v292.3H0z"/><path class="st1" d="M180 133.7c10.4 0 15.7 5.4 18.6 12.4l-9.7 3.7c-1.2-4.8-4.3-7.7-9.4-7.7-7.5 0-10.8 7.3-10.8 15.2 0 7.8 3.1 15.1 10.9 15.1 5.3 0 7.7-3.1 9.3-7.2l9.9 3.8c-3.6 6.6-8.9 11.9-19 11.9-13.5 0-22.1-9.4-22.1-23.6-.1-14.1 8.5-23.6 22.3-23.6zm63.7 46h-10.2V173c-2.7 4.6-7 7.9-13.9 7.9-8.5 0-15.6-5-15.6-15v-31h10.7v28.4c0 6.4 4 8.9 8.1 8.9 5.2 0 10.2-4.6 10.2-13.5V135h10.7v44.7zm111.3-9.8c-3.5 6.7-9.7 11.1-19.1 11.1-13.7 0-22.2-9.5-22.2-23.7 0-14.1 8.7-23.5 21.8-23.5 14.4 0 21.1 10.9 21.1 23.1v3h-32c.3 6.7 3.2 13.1 11.2 13.1 5.5 0 8.1-2.8 9.9-6.7l9.3 3.6zm-30.2-17.2h21c-.3-7.1-4.4-11.2-10.4-11.2-6.3 0-10 4.7-10.6 11.2zm38.3-17.8h10.3v6.8c2.6-4.6 7.1-8 14.1-8 8.7 0 15.9 5 15.9 15.1v30.9h-10.8v-28.4c0-6.4-4.2-8.9-8.3-8.9-5.4 0-10.4 4.6-10.4 13.5v23.7h-10.8v-44.7zm68.5-1.2c10.4 0 15.7 5.4 18.6 12.4l-9.7 3.7c-1.2-4.8-4.3-7.7-9.4-7.7-7.5 0-10.8 7.3-10.8 15.2 0 7.8 3.1 15.1 10.9 15.1 5.3 0 7.7-3.1 9.3-7.2l9.9 3.8c-3.6 6.6-8.9 11.9-19 11.9-13.5 0-22.1-9.4-22.1-23.6-.1-14.1 8.4-23.6 22.3-23.6zm89.5-11.1c2.8 0 5.1 1.3 6.4 2.6l3.3-8.9c-2.6-1.6-6.8-2.5-10.8-2.5-7.7 0-16 4.2-16 16.7v4.5h-18.3s-10 27.3-11.6 32.7h-.1c-1.8-5.4-11.8-32.7-11.8-32.7h-11l17.6 44.9-7.4 18.8h10.5l21.1-55.8h11.1v36.9h10.7v-36.9h8.1l3-7.9h-11.1v-4.6c0-5.6 2.6-7.8 6.3-7.8zm35.1 51.3c-2.9 4.2-7.2 7-14.3 7-9 0-15-4.9-15-12.8 0-12 13.8-15.6 29.1-15.6v-2.8c0-4.7-2.6-8-8.2-8-5.7 0-8.4 3.2-8.5 7l-10.4-1.5c.9-8.8 9.4-13.5 19.3-13.5 10.8 0 18.3 5.5 18.3 16.3v23.6c0 2.7.5 4.4 1 6.1h-10.4c-.4-.8-.9-3.3-.9-5.8zm-.2-10.7v-3.7c-11.1 0-18.5 2.1-18.5 8 0 3.6 3.1 5.5 7.4 5.5 5.6 0 11.1-3.6 11.1-9.8zm18.7-28.3h10.8v44.8h-10.8v-44.8zm44.5 8.9c-1.2-.6-2.6-.9-3.9-.9-5.2 0-10.9 4.5-10.9 14.2v22.6h-10.8v-44.8h10.1v7.3c2.5-5.7 7.1-8.5 13.2-8.5 1.8 0 3.9.3 5.7 1l-3.4 9.1zm-341.7 0c-1.2-.6-2.6-.9-3.9-.9-5.2 0-10.9 4.5-10.9 14.2v22.6h-10.8v-44.8H262v7.3c2.5-5.7 7.1-8.5 13.2-8.5 1.8 0 3.9.3 5.7 1l-3.4 9.1zm33.1 0c-1.2-.6-2.6-.9-3.9-.9-5.2 0-10.9 4.5-10.9 14.2v22.6H285v-44.8h10.1v7.3c2.5-5.7 7.1-8.5 13.2-8.5 1.8 0 3.9.3 5.7 1l-3.4 9.1z"/><ellipse transform="rotate(-60 580.11 118.933)" class="st1" cx="580.1" cy="118.9" rx="6.9" ry="6.9"/><circle class="st2" cx="88.7" cy="203.6" r="32.9"/><circle class="st2" cx="135.2" cy="80.5" r="24.7"/><circle class="st2" cx="109.1" cy="149.7" r="16.5"/><circle class="st2" cx="120.7" cy="118.9" r="8.2"/></svg>